<svg width="102" height="22" viewBox="0 0 102 22" fill="none" xmlns="http://www.w3.org/2000/svg">
<path d="M19 9.5V6C19 5.45 18.55 5 18 5H6C5.45 5 5 5.45 5 6V16C5 16.55 5.45 17 6 17H18C18.55 17 19 16.55 19 16V12.5L23 16.5V5.5L19 9.5ZM17 7.67V15H7V7H17V7.67ZM9.11 10.11L13 14L16.77 10.21L15.99 9.42L13 12.43L9.89 9.33H12.44V8.22H8V12.66H9.11V10.11Z" fill="black"/>
<path d="M33.37 17.1705C32.4761 17.1705 31.7071 16.9811 31.0632 16.6023C30.4231 16.2197 29.9306 15.6894 29.5859 15.0114C29.245 14.3333 29.0746 13.553 29.0746 12.6705C29.0746 11.7765 29.2469 10.9924 29.5916 10.3182C29.9401 9.64015 30.4344 9.11174 31.0746 8.73295C31.7147 8.35038 32.4761 8.15909 33.3587 8.15909C34.12 8.15909 34.7867 8.29735 35.3587 8.57386C35.9306 8.85038 36.3833 9.23864 36.7166 9.73864C37.05 10.2386 37.2337 10.8258 37.2678 11.5H34.9837C34.9193 11.0644 34.7488 10.714 34.4723 10.4489C34.1996 10.1799 33.8416 10.0455 33.3984 10.0455C33.0234 10.0455 32.6958 10.1477 32.4155 10.3523C32.139 10.553 31.9231 10.8466 31.7678 11.233C31.6125 11.6193 31.5348 12.0871 31.5348 12.6364C31.5348 13.1932 31.6106 13.6667 31.7621 14.0568C31.9174 14.447 32.1352 14.7443 32.4155 14.9489C32.6958 15.1534 33.0234 15.2557 33.3984 15.2557C33.675 15.2557 33.9231 15.1989 34.1428 15.0852C34.3662 14.9716 34.55 14.8068 34.6939 14.5909C34.8416 14.3712 34.9382 14.108 34.9837 13.8011H37.2678C37.2299 14.4678 37.0481 15.0549 36.7223 15.5625C36.4003 16.0663 35.9553 16.4602 35.3871 16.7443C34.8189 17.0284 34.1465 17.1705 33.37 17.1705ZM40.8061 17.1648C40.2493 17.1648 39.7531 17.0682 39.3175 16.875C38.8819 16.678 38.5372 16.3883 38.2834 16.0057C38.0334 15.6193 37.9084 15.1383 37.9084 14.5625C37.9084 14.0777 37.9974 13.6705 38.1754 13.3409C38.3535 13.0114 38.5959 12.7462 38.9027 12.5455C39.2095 12.3447 39.558 12.1932 39.9482 12.0909C40.3421 11.9886 40.755 11.9167 41.1868 11.875C41.6944 11.822 42.1035 11.7727 42.4141 11.7273C42.7247 11.678 42.95 11.6061 43.0902 11.5114C43.2304 11.4167 43.3004 11.2765 43.3004 11.0909V11.0568C43.3004 10.697 43.1868 10.4186 42.9595 10.2216C42.736 10.0246 42.4179 9.92614 42.005 9.92614C41.5694 9.92614 41.2228 10.0227 40.9652 10.2159C40.7076 10.4053 40.5372 10.6439 40.4538 10.9318L38.2152 10.75C38.3288 10.2197 38.5523 9.76136 38.8857 9.375C39.219 8.98485 39.6489 8.68561 40.1754 8.47727C40.7057 8.26515 41.3194 8.15909 42.0163 8.15909C42.5012 8.15909 42.9652 8.21591 43.4084 8.32955C43.8554 8.44318 44.2512 8.61932 44.5959 8.85795C44.9444 9.09659 45.219 9.40341 45.4197 9.77841C45.6205 10.1496 45.7209 10.5947 45.7209 11.1136V17H43.4254V15.7898H43.3572C43.2171 16.0625 43.0296 16.303 42.7947 16.5114C42.5599 16.7159 42.2777 16.8769 41.9482 16.9943C41.6186 17.108 41.2379 17.1648 40.8061 17.1648ZM41.4993 15.4943C41.8554 15.4943 42.1697 15.4242 42.4425 15.2841C42.7152 15.1402 42.9292 14.947 43.0845 14.7045C43.2398 14.4621 43.3175 14.1875 43.3175 13.8807V12.9545C43.2417 13.0038 43.1375 13.0492 43.005 13.0909C42.8762 13.1288 42.7304 13.1648 42.5675 13.1989C42.4046 13.2292 42.2417 13.2576 42.0788 13.2841C41.916 13.3068 41.7682 13.3277 41.6357 13.3466C41.3516 13.3883 41.1035 13.4545 40.8913 13.5455C40.6792 13.6364 40.5144 13.7595 40.397 13.9148C40.2796 14.0663 40.2209 14.2557 40.2209 14.483C40.2209 14.8125 40.3402 15.0644 40.5788 15.2386C40.8213 15.4091 41.1281 15.4943 41.4993 15.4943ZM49.5192 5.36364V17H47.0987V5.36364H49.5192ZM58.2195 10.7614L56.0036 10.8977C55.9657 10.7083 55.8842 10.5379 55.7592 10.3864C55.6342 10.2311 55.4695 10.108 55.2649 10.017C55.0642 9.92235 54.8236 9.875 54.5433 9.875C54.1683 9.875 53.852 9.95455 53.5945 10.1136C53.3369 10.2689 53.2081 10.4773 53.2081 10.7386C53.2081 10.947 53.2914 11.1231 53.4581 11.267C53.6248 11.411 53.9107 11.5265 54.3161 11.6136L55.8956 11.9318C56.7441 12.1061 57.3767 12.3864 57.7933 12.7727C58.21 13.1591 58.4183 13.6667 58.4183 14.2955C58.4183 14.8674 58.2498 15.3693 57.9126 15.8011C57.5793 16.233 57.121 16.5701 56.5376 16.8125C55.9581 17.0511 55.2895 17.1705 54.532 17.1705C53.3767 17.1705 52.4562 16.9299 51.7706 16.4489C51.0888 15.964 50.6892 15.3049 50.5717 14.4716L52.9524 14.3466C53.0244 14.6989 53.1986 14.9678 53.4751 15.1534C53.7517 15.3352 54.1058 15.4261 54.5376 15.4261C54.9619 15.4261 55.3028 15.3447 55.5604 15.1818C55.8217 15.0152 55.9543 14.8011 55.9581 14.5398C55.9543 14.3201 55.8615 14.1402 55.6797 14C55.4979 13.8561 55.2176 13.7462 54.8388 13.6705L53.3274 13.3693C52.4751 13.1989 51.8407 12.9034 51.424 12.483C51.0111 12.0625 50.8047 11.5265 50.8047 10.875C50.8047 10.3144 50.9562 9.83144 51.2592 9.42614C51.5661 9.02083 51.996 8.70833 52.549 8.48864C53.1058 8.26894 53.7573 8.15909 54.5036 8.15909C55.6058 8.15909 56.4732 8.39205 57.1058 8.85795C57.7422 9.32386 58.1134 9.95833 58.2195 10.7614ZM65.2095 20.2727V15.6023H65.1357C65.022 15.8447 64.861 16.0852 64.6527 16.3239C64.4482 16.5587 64.1811 16.7538 63.8516 16.9091C63.5258 17.0644 63.1281 17.142 62.6584 17.142C61.9955 17.142 61.3951 16.9716 60.8572 16.6307C60.3232 16.286 59.8989 15.7803 59.5845 15.1136C59.2739 14.4432 59.1186 13.6212 59.1186 12.6477C59.1186 11.6477 59.2796 10.8163 59.6016 10.1534C59.9235 9.48674 60.3516 8.98864 60.8857 8.65909C61.4235 8.32576 62.0125 8.15909 62.6527 8.15909C63.1413 8.15909 63.5485 8.24242 63.8743 8.40909C64.2038 8.57197 64.469 8.77652 64.6697 9.02273C64.8743 9.26515 65.0296 9.50379 65.1357 9.73864H65.2379V8.27273H67.6243V20.2727H65.2095ZM63.4254 15.2159C63.8156 15.2159 64.1451 15.1098 64.4141 14.8977C64.6868 14.6818 64.8951 14.3807 65.0391 13.9943C65.1868 13.608 65.2607 13.1553 65.2607 12.6364C65.2607 12.1174 65.1887 11.6667 65.0447 11.2841C64.9008 10.9015 64.6925 10.6061 64.4197 10.3977C64.147 10.1894 63.8156 10.0852 63.4254 10.0852C63.0277 10.0852 62.6925 10.1932 62.4197 10.4091C62.147 10.625 61.9406 10.9242 61.8004 11.3068C61.6603 11.6894 61.5902 12.1326 61.5902 12.6364C61.5902 13.1439 61.6603 13.5928 61.8004 13.983C61.9444 14.3693 62.1508 14.6723 62.4197 14.892C62.6925 15.108 63.0277 15.2159 63.4254 15.2159ZM74.6641 13.2841V8.27273H77.0845V17H74.7607V15.4148H74.6697C74.4728 15.9261 74.1451 16.3371 73.6868 16.6477C73.2322 16.9583 72.6773 17.1136 72.022 17.1136C71.4387 17.1136 70.9254 16.9811 70.4822 16.7159C70.0391 16.4508 69.6925 16.0739 69.4425 15.5852C69.1963 15.0966 69.0713 14.5114 69.0675 13.8295V8.27273H71.4879V13.3977C71.4917 13.9129 71.63 14.3201 71.9027 14.6193C72.1754 14.9186 72.541 15.0682 72.9993 15.0682C73.291 15.0682 73.5637 15.0019 73.8175 14.8693C74.0713 14.733 74.2758 14.5322 74.4311 14.267C74.5902 14.0019 74.6679 13.6742 74.6641 13.2841ZM81.0092 17.1648C80.4524 17.1648 79.9562 17.0682 79.5206 16.875C79.085 16.678 78.7403 16.3883 78.4865 16.0057C78.2365 15.6193 78.1115 15.1383 78.1115 14.5625C78.1115 14.0777 78.2005 13.6705 78.3786 13.3409C78.5566 13.0114 78.799 12.7462 79.1058 12.5455C79.4126 12.3447 79.7611 12.1932 80.1513 12.0909C80.5452 11.9886 80.9581 11.9167 81.3899 11.875C81.8975 11.822 82.3066 11.7727 82.6172 11.7273C82.9278 11.678 83.1532 11.6061 83.2933 11.5114C83.4335 11.4167 83.5036 11.2765 83.5036 11.0909V11.0568C83.5036 10.697 83.3899 10.4186 83.1626 10.2216C82.9392 10.0246 82.621 9.92614 82.2081 9.92614C81.7725 9.92614 81.4259 10.0227 81.1683 10.2159C80.9107 10.4053 80.7403 10.6439 80.657 10.9318L78.4183 10.75C78.532 10.2197 78.7554 9.76136 79.0888 9.375C79.4221 8.98485 79.852 8.68561 80.3786 8.47727C80.9089 8.26515 81.5225 8.15909 82.2195 8.15909C82.7043 8.15909 83.1683 8.21591 83.6115 8.32955C84.0585 8.44318 84.4543 8.61932 84.799 8.85795C85.1475 9.09659 85.4221 9.40341 85.6229 9.77841C85.8236 10.1496 85.924 10.5947 85.924 11.1136V17H83.6286V15.7898H83.5604C83.4202 16.0625 83.2327 16.303 82.9979 16.5114C82.763 16.7159 82.4808 16.8769 82.1513 16.9943C81.8217 17.108 81.4411 17.1648 81.0092 17.1648ZM81.7024 15.4943C82.0585 15.4943 82.3729 15.4242 82.6456 15.2841C82.9183 15.1402 83.1323 14.947 83.2876 14.7045C83.4429 14.4621 83.5206 14.1875 83.5206 13.8807V12.9545C83.4448 13.0038 83.3407 13.0492 83.2081 13.0909C83.0793 13.1288 82.9335 13.1648 82.7706 13.1989C82.6077 13.2292 82.4448 13.2576 82.282 13.2841C82.1191 13.3068 81.9714 13.3277 81.8388 13.3466C81.5547 13.3883 81.3066 13.4545 81.0945 13.5455C80.8823 13.6364 80.7176 13.7595 80.6001 13.9148C80.4827 14.0663 80.424 14.2557 80.424 14.483C80.424 14.8125 80.5433 15.0644 80.782 15.2386C81.0244 15.4091 81.3312 15.4943 81.7024 15.4943ZM87.3018 17V8.27273H89.6484V9.79545H89.7393C89.8984 9.25379 90.1655 8.8447 90.5405 8.56818C90.9155 8.28788 91.3473 8.14773 91.8359 8.14773C91.9571 8.14773 92.0878 8.1553 92.228 8.17045C92.3681 8.18561 92.4912 8.20644 92.5973 8.23295V10.3807C92.4837 10.3466 92.3265 10.3163 92.1257 10.2898C91.925 10.2633 91.7412 10.25 91.5746 10.25C91.2185 10.25 90.9003 10.3277 90.62 10.483C90.3435 10.6345 90.1238 10.8466 89.9609 11.1193C89.8018 11.392 89.7223 11.7064 89.7223 12.0625V17H87.3018ZM96.9197 17.1705C96.022 17.1705 95.2493 16.9886 94.6016 16.625C93.9576 16.2576 93.4614 15.7386 93.1129 15.0682C92.7644 14.3939 92.5902 13.5966 92.5902 12.6761C92.5902 11.7784 92.7644 10.9905 93.1129 10.3125C93.4614 9.63447 93.9519 9.10606 94.5845 8.72727C95.2209 8.34848 95.9671 8.15909 96.8232 8.15909C97.3989 8.15909 97.9349 8.25189 98.4311 8.4375C98.9311 8.61932 99.3667 8.89394 99.7379 9.26136C100.113 9.62879 100.405 10.0909 100.613 10.6477C100.821 11.2008 100.925 11.8485 100.925 12.5909V13.2557H93.5561V11.7557H98.647C98.647 11.4072 98.5713 11.0985 98.4197 10.8295C98.2682 10.5606 98.058 10.3504 97.7891 10.1989C97.5239 10.0436 97.2152 9.96591 96.8629 9.96591C96.4955 9.96591 96.1697 10.0511 95.8857 10.2216C95.6054 10.3883 95.3857 10.6136 95.2266 10.8977C95.0675 11.178 94.986 11.4905 94.9822 11.8352V13.2614C94.9822 13.6932 95.0618 14.0663 95.2209 14.3807C95.3838 14.6951 95.6129 14.9375 95.9084 15.108C96.2038 15.2784 96.5542 15.3636 96.9595 15.3636C97.2285 15.3636 97.4747 15.3258 97.6982 15.25C97.9216 15.1742 98.1129 15.0606 98.272 14.9091C98.4311 14.7576 98.5523 14.572 98.6357 14.3523L100.874 14.5C100.761 15.0379 100.528 15.5076 100.175 15.9091C99.8269 16.3068 99.3762 16.6174 98.8232 16.8409C98.2739 17.0606 97.6394 17.1705 96.9197 17.1705Z" fill="black"/>
</svg>
